<?xml version="1.0" encoding="utf-8"?>
<!-- Generator: Adobe Illustrator 21.0.0, SVG Export Plug-In . SVG Version: 6.00 Build 0)  -->
<svg version="1.1" id="圖層_1" xmlns="http://www.w3.org/2000/svg" xmlns:xlink="http://www.w3.org/1999/xlink" x="0px" y="0px"
	 viewBox="0 0 267.6 271.7" style="enable-background:new 0 0 267.6 271.7;" xml:space="preserve">
<style type="text/css">
	.st0{fill:#FFFFFF;}
</style>
<title>Biker</title>
<path class="st0" d="M0,220.3c0.1,28.5,23.4,51.5,51.9,51.4s51.5-23.4,51.4-51.9c-0.1-18.9-10.5-36.2-27.1-45.2
	c2-4.6,3.4-7.9,3.6-8.2c0.8-1.3,2.1-0.5,3.2-2.6s1.2-4.4,3.6-6.3c0.5-0.4,0.5-0.8,0.2-1.1c0.3-0.7,0.7-1.3,1.3-1.8
	c0.6-1,1.2-2,1.6-3.1l49,63.4c0.3,1,0.7,2,1.3,2.9c-1.8,3.5-2,7.6-0.5,11.3c-0.4,0.4-1.1,1.1-1.4,1.3c-0.5,0.4-0.5,1.4-0.5,1.8
	s-0.8,1.1-1,1.1s-0.3-0.7-0.6-0.8c-1.2,0.4-2.3,1-3.4,1.6c-0.2,0.1,0.3,0.7,0.1,1.1s-1.3,0.1-6.1,1.1s-3.6,4.2-3.2,4.9
	s1.8,0.8,2.1,0.8s3,2,3.8,2.3c0.8,0.1,1.6,0.1,2.4-0.1l-1,1.7c1.3,0.8,2.6,1.6,3.9,2.3c0.6,0.2,0.8-1.1,1.3-1s2.1,1.5,2.8,1.5
	s2.5-1.7,2.8-2.2s0.3-0.8,0.3-0.8c0.2,0,0.3,0,0.5,0c0.2,0,1.4-1.1,1.4-1.3s-0.6-0.8-0.6-0.8c0.5-0.4,1.1-0.6,1.8-0.8
	c0.9-0.3,1.7-0.6,2.5-1c0,0,4.2-0.6,8.5-1.7c1.2-0.2,2.3-0.8,3.3-1.5l9.6,2c11.7,26,42.3,37.6,68.3,25.8
	c26-11.7,37.6-42.3,25.8-68.3c-11.7-26-42.3-37.6-68.3-25.8c-3.1,1.4-6.1,3.2-8.9,5.2c-0.9-1.5-3.1-4.8-4.1-5.6
	c-0.8-0.5-1.8-0.6-2.8-0.4c-1.1-1.5-3.1-3.9-5.6-4.7c-0.7-0.2-1.3-0.4-2-0.5c0.2-0.8,0.7-1.8,0.9-2.4c3.4-1.4,6-6.1,6.5-7.2
	c0.7-0.4,1.5-1.9,1.4-2.2s-3.3-1.7-4.2-2.1c0-0.1,0.1-0.1,0.1-0.2c0-0.2,1.7-1.1,1.7-1.1s-1.4-1.4-1.2-1.8s3-8.4,4.2-10.8
	s6.4-8.9,7-9.8s5.8-3.6,10.6-5.5s7.9-6.1,8.4-10.2c0.2-3-0.1-6.1-0.9-9l1.2-1.2c-0.8-4-2-7.8-3.7-11.5c4.2-3.1,6.5-8,6.1-13.2
	c-0.1-0.8-1-1.5-1.1-2.5c-0.3-2.9,4-9.9,1.2-13c0.5-3.3-1-4.9-2.4-7.3c-0.8-1.5-1.4-3.3-2.2-4.5c-1.2-2-3.6-3-4.3-5.1
	c-0.1-0.8,0.4-0.9,0.4-1.7c-1.7-1.5-3.2-3.3-5.4-4.4c-1-0.1-0.5,1.5-1.2,1.6c-1.2-0.6-1.2-2.3-2.3-3c-1.5-0.1-2.5,1.5-3.9,0.3
	c0.3-1.8,1.4-2.6,1.3-4.8c-1-2.5-3.8-1.7-6.3-2.3c-2.1-0.5-3.6-2.4-5.3-2.9c-2.4,2.5-7.6-1-9.5,2.4c-0.3,2,0.9,2.8,0.6,4.8
	c-2.2,0.7-3.9-1.9-7-1.7c-1.2,0.8-5.8,3.9-8.4,3.6c-1.8-0.9-3.4-2.2-4.8-3.7c-1.4-1.7-5.4-2.1-6.2-2.3s-0.9-1.5-1.6-2.1
	s0-2.4,0.3-3.9s1.8-1.3,2.3-1.3s1.6-1.7,2.2-2.7s0.6-2.9-0.4-4.6s-0.7-3-0.8-4.3s-0.4-3.3-1.4-4.3s-0.7-2.9-1.2-3.9
	s-10.5-4.9-18.7-4S109.4,7.2,107,10s-4.8,5.4-4.9,6c-0.1,0.5,2,0.9,2.9,1.1s5.3,1.9,5.3,1.9s0.1,1.5,0.2,3.3
	c-0.1,1.9-0.6,3.8-1.7,5.5c-0.6,0.6-0.6,1.5,0,2.1c0.2,0.2,0.4,0.3,0.6,0.4c0.8,0.3,1.8,0.4,1.4,1.3c-0.4,0.9-0.5,2.4,0.2,2.7
	s0.8,1.4,0.8,2.3s0.8,1.5,1.1,2.1s-0.1,2.5,0.8,3.6s3.2,0.9,5.4,0.7s3.9,1.2,5.1,2.1c0.7,0.7,1.2,1.6,1.2,2.6
	c0.2,0.6,1.6,1.1,0.6,1.8s-2.4,3.2-4.8,6.2s-6.8,14.9-9.4,18.3s-6.9,7.1-9.1,9.3s-18.5,27.4-18.5,27.4H83c0,0-2.7,3.6-3.6,3.8
	s-1.9-0.1-2.7,0s-1.8,0.9-2.8,0.9c-1,0.1-1.8,0.6-2.3,1.5c-0.3,0.7-0.3,1.4-0.1,2.1c0.1,0.4-0.8,1.1-0.9,1.8
	c-0.2,0.7-0.4,1.3-0.8,1.9c-0.3,0.6-0.5,1.2-0.5,1.9c0,0.3-2.3,2.2-2.3,2.5c0,0.3,0.1,0.5,0.3,0.7c-0.7,1.4-1,3-1,4.6
	c0,1,0.3,2,0.7,2.9c0.4,1.6,0.9,3.2,1.6,4.8c1.7,4.6,1.7,9.6,0.1,14.2c-1.2,3.6-1.8,7.4-2,11.3c-0.2,0-0.4,0.1-0.6,0.2
	c-0.7,0.4-0.9,2.8-0.9,4.5c-27.6-7.5-55.9,8.8-63.4,36.4C0.6,211,0,215.6,0,220.3z M12.9,202.7l16.4,9.3L10,212.1
	C10.6,208.9,11.6,205.7,12.9,202.7L12.9,202.7z M18.4,193.7l16.3,9.3l3.3,4.1l0.8,1.4c-0.8,1.1-1.5,2.2-2,3.5h-5.4l-18.1-10.3
	C14.7,198.8,16.4,196.2,18.4,193.7L18.4,193.7z M36.1,214.6l-2.7-1.5h3.1C36.3,213.6,36.2,214.1,36.1,214.6L36.1,214.6z M36.1,220.9
	c0.1,0.5,0.3,1,0.4,1.6h-3.1L36.1,220.9z M23,188.8l9.8,11.9L19,192.9C20.2,191.4,21.6,190,23,188.8z M45,196.1l-9.1-15.6
	c2.9-1.2,5.9-2,9-2.5L45,196.1z M45,203.7c-0.6,0.2-1.2,0.5-1.7,0.9l-15.9-19.4c2.4-1.6,4.9-3,7.5-4.2L45,198.3V203.7z M40.8,229.1
	l-2.7,1.6l1.5-2.7C40,228.3,40.4,228.7,40.8,229.1L40.8,229.1z M55.5,203.2L55.5,203.2c-0.5-0.2-1-0.3-1.5-0.4l1.5-2.7L55.5,203.2z
	 M55.6,235.2l-1.6-2.7c0.5-0.1,1-0.3,1.5-0.4L55.6,235.2z M72.5,183c0.9,0.5,1.8,1,2.6,1.6l-10.3,18.3l-1,0.6
	C66.1,198.1,69.5,190.2,72.5,183L72.5,183z M70.1,129.3h-0.4c-0.9-0.1-1.8,0.4-2.3,1.1c-0.2,0.3-0.3,0.5-0.4,0.8
	c0.1-1.1,0.4-2.2,0.8-3.1l0.2,0.1c0.7-0.2,1.3-0.5,1.9-0.9C69.9,128,70,128.7,70.1,129.3L70.1,129.3z M70.2,129.9
	c0.1,0.6,0.3,1.2,0.5,1.7c-0.6,0.6-1,1.4-1.2,2.2c-0.3,1.8,0.2,3.7,1.2,5.3c-1.3-1.1-2.4-2.5-3.1-4c-0.5-2.4-0.2-3.6,0.2-4.3
	c0.4-0.6,1.1-0.9,1.9-0.9L70.2,129.9z M72.7,129.4c-0.6,0-1.2-0.1-2-0.1c-0.2-0.8-0.2-1.6-0.2-2.4c0.3-0.2,0.7-0.4,1.1-0.5
	c0.7,0.2,1.5,0.6,2.1,1.1C73.9,127.7,73.3,128.6,72.7,129.4L72.7,129.4z M72.3,129.9c-0.1,0.2-0.2,0.4-0.3,0.6
	c-0.3,0.2-0.6,0.4-0.9,0.7c-0.1-0.5-0.3-0.9-0.4-1.3C71.4,129.9,72,129.9,72.3,129.9L72.3,129.9z M79.2,133.3
	c-1.6,0.2-3.2,0.6-4.8,1c-0.6,0.1-1.1,0.3-1.6,0.5c-0.5-1-1-2-1.4-3.1c0.2-0.2,0.5-0.4,0.7-0.6c0.6,0.3,3,0,3.3,0.1s0.8,0.8,1.5,0.8
	s3.5-0.2,3.6,0S79.5,133,79.2,133.3L79.2,133.3z M161,213.2c0.2-1.8,0.4-3.1,0.5-3.9c0.4-1.8,0.8-3.6,1.4-5.3c0,0,2-0.4,4-1
	c-1.1,3.3-1.9,6.7-2.3,10.2L161,213.2z M164.5,214.5c-0.1,0.6-0.1,1.2-0.1,1.8h-1.2c-0.4-0.6-0.9-1.3-1.5-1.8L164.5,214.5z
	 M176.4,159.1c-0.8-0.8-1.8-1.4-2.9-1.9c0.3-0.8,0.7-1.7,1.1-2.6c1.2,0.5,2.3,1.1,3.4,1.8C177.6,157.3,177,158.2,176.4,159.1
	L176.4,159.1z M173.2,158.4v-0.1c0-0.2,0.1-0.4,0.1-0.5c1,0.4,1.9,1.1,2.7,1.8l-0.4,0.6C174.9,159.4,174.1,158.8,173.2,158.4
	L173.2,158.4z M172.3,163c0.2-1,0.5-2.7,0.8-4.1c0.8,0.4,1.6,1,2.2,1.6C174.5,161.5,173.5,162.4,172.3,163L172.3,163z M182.7,192.9
	l16.3,9.3l3.3,4.1l0.8,1.4c-0.8,1.1-1.5,2.2-2,3.5h-5.4l-18.1-10.3C179.1,198,180.7,195.4,182.7,192.9L182.7,192.9z M174.3,211.3
	c0.6-3.3,1.6-6.4,3-9.4l16.4,9.4L174.3,211.3z M195.5,212.3l1.2,0.7l-22.8,0.1c0-0.2,0.1-0.5,0.1-0.7L195.5,212.3z M200.8,212.3
	c-0.1,0.2-0.1,0.5-0.2,0.7h-1.7l-1.2-0.7L200.8,212.3z M187.3,188l9.8,11.9l-13.7-7.9C184.6,190.6,185.9,189.2,187.3,188L187.3,188z
	 M209.3,195.4l-9.1-15.6c2.9-1.2,5.9-2,9-2.5L209.3,195.4z M209.3,202.9c-0.6,0.2-1.2,0.5-1.7,0.9l-15.9-19.4c2.3-1.6,4.9-3,7.5-4.2
	l10.1,17.3L209.3,202.9z M201.3,231.7l4.7-2.7c0.3,0.2,0.6,0.4,0.9,0.6c-0.1,4-0.3,10.5-0.3,11.8c0,0.1,0,0.1,0,0.2l-0.4,0.8
	c-0.7,0.3-1.9-0.2-2.4,0.1s-0.5,3-0.6,4.5l-9.3-2L201.3,231.7z M192.7,244.7l-10-2.1l16.8-9.8L192.7,244.7z M202.4,229.8l1.5-2.7
	c0.4,0.4,0.7,0.8,1.1,1.1L202.4,229.8z M219.8,202.5c-0.5-0.2-1-0.3-1.6-0.4l1.5-2.7L219.8,202.5z M220,234.5l-1.4-2.4
	c0.4,0.1,0.9,0.1,1.4,0.1L220,234.5z M247.8,191.2L231,201l9.4-16.5C243.2,186.4,245.6,188.6,247.8,191.2L247.8,191.2z M253.7,199.9
	L234.6,211h-5.4c-0.5-1.2-1.2-2.4-2-3.5l2.7-4.7l18.6-10.9C250.6,194.4,252.3,197,253.7,199.9L253.7,199.9z M226.4,206.7
	c-0.4-0.4-0.7-0.8-1.1-1.1l2.7-1.6L226.4,206.7z M230.1,220l2.7,1.5h-3.1C229.9,221,230,220.5,230.1,220z M230.1,213.7
	c-0.1-0.5-0.3-1-0.4-1.6h3.1L230.1,213.7z M257.6,210.9l-20.8,0.1l17.4-10.2C255.8,204,256.9,207.4,257.6,210.9L257.6,210.9z
	 M258.4,221.4l-23.4,0.1l-4.7-2.7c0.2-1.3,0.2-2.7,0-4l4.6-2.7l22.9-0.1c0.4,2.3,0.6,4.7,0.6,7C258.4,219.8,258.4,220.6,258.4,221.4
	L258.4,221.4z M256,233.5l-19.1-10.9l21.4-0.1C258.1,226.2,257.3,229.9,256,233.5z M251.3,242.8L230,230.7l-2.7-4.6
	c0.8-1.1,1.5-2.2,2-3.5h5.4l20.9,11.9C254.4,237.4,253,240.2,251.3,242.8L251.3,242.8z M228,229.3l0.2,0.4l-0.4-0.2
	C227.9,229.4,227.9,229.3,228,229.3L228,229.3z M242.6,252.3l-11.5-19.6l19.5,11.1C248.4,246.9,245.7,249.8,242.6,252.3L242.6,252.3
	z M221.2,238.5l11.5,19.8c-3.6,1.6-7.5,2.6-11.4,3.1L221.2,238.5z M221.2,231.2c0-0.1,0-0.2,0-0.3c0.5-0.2,1-0.5,1.5-0.7
	c0.4,0.2,0.8,0.2,1.2,0.2c0.3-0.1,0.1-0.6,0-0.9l0.3-0.2c0.7,0.4,1.5,0.6,2.3,0.7l2.9,1.6l12.5,21.4c-2.5,1.9-5.2,3.5-8.1,4.8
	l-12.6-21.5L221.2,231.2z M221,197.5l10.2-17.9c2.9,1.1,5.7,2.6,8.4,4.3l-10.5,18.2l-4.6,2.7c-1.1-0.8-2.2-1.5-3.5-2L221,197.5z
	 M220.9,177.1c3.2,0.4,6.3,1.1,9.3,2.1l-9.2,16.1L220.9,177.1z M210.7,236.7l0.6-1c0.6-0.1,1.6-0.3,3-0.5c2.3-0.3,3.4-1.1,3.9-1.8
	l1.9,3.2l0.1,24.9c-1.3,0.1-2.6,0.2-4,0.2c-1.8,0-3.6-0.1-5.4-0.3L210.7,236.7z M210.5,199.4l1.5,2.6c-0.5,0.1-1,0.3-1.6,0.4
	L210.5,199.4z M210.4,177.2c1.8-0.2,3.6-0.4,5.4-0.4c1.3,0,2.7,0.1,4,0.2l0.1,20.2l-2.7,4.7c-0.7-0.1-1.3-0.1-2-0.1
	c-0.7,0-1.3,0.1-2,0.1l-2.7-4.6L210.4,177.2z M198.6,257.9l5.3-9.2c0.9,0.6,2.5,1.2,3.4,1.6c1.4,0.7,1.3-0.8,1.5-2
	c0.1-0.7,0.6-4.4,0.9-7.6l0.1,20.4C205.9,260.6,202.1,259.5,198.6,257.9L198.6,257.9z M189.6,252.4l3.9-6.7l9.6,2c0,0,0,0.1,0,0.1
	l-5.5,9.6C194.8,256,192.1,254.4,189.6,252.4L189.6,252.4z M181.3,243.5l0.5-0.3l10.6,2.3l-3.6,6.3
	C185.9,249.3,183.4,246.6,181.3,243.5L181.3,243.5z M176.4,234.2l13.8-8l11.5-2.7c0.5,1,1,1.9,1.7,2.7l-2.7,4.7l-19.4,11.3l-1-0.2
	C178.7,239.6,177.3,237,176.4,234.2L176.4,234.2z M174.9,229.7l11.6-2.7l-10.6,6.2C175.5,232,175.2,230.9,174.9,229.7L174.9,229.7z
	 M173.7,216.3c0-0.6,0.1-1.2,0.2-1.8l25.3-0.1l1.1,0.6c0,0.4-0.1,0.8-0.1,1.2L173.7,216.3z M172.1,168.1c1.8,0.4,3.2,1.7,3.7,3.5
	c-0.1,0-0.3,0-0.4,0C174.8,171.4,173.1,169.5,172.1,168.1L172.1,168.1z M171.3,166.6c0.7,0.1,1.3,0.3,1.9,0.5
	c2.2,0.7,4.1,2.8,5.1,4.2c-0.7,0.1-1.4,0.2-2,0.2c-0.6-2.1-2.3-3.6-4.4-4v0.3C171.6,167.4,171.4,167,171.3,166.6L171.3,166.6z
	 M170.3,156.4l-1.3-0.2l1.3-1.1V156.4z M167.7,160.7c-0.5,0-2.1,0.1-2.2-0.2s2.4-2.5,2.4-2.5l1.4,0.7
	C169.2,158.6,168.1,160.6,167.7,160.7L167.7,160.7z M160,237.7c0.6-0.9,0.9-2,0.8-3.1c0-0.1,0-0.3,0-0.4c1.5-1.3,2.7-2.8,3.5-4.6
	h1.1c0.7,3.4,1.7,6.7,3.1,9.9L160,237.7z M136.9,112.2c-3.3,1.5-6.9,5.6-11.3,7.8s-6.4,5.5-7.5,10.1c-1.2,4.6,3.2,11.9,5.2,14.1
	c2.1,2.1,4.4,4,6.7,5.9l-34.5-12l0.4-1.1c1-0.2,1.9-0.4,2.3-0.5c1.5-0.5,2.7-3.8,3.6-4.6s3.2-3.6,4.7-5.3c0.5,0.3,0.6,0.9,0.4,1.5
	c-0.1,0.3-0.1,0.6,0,0.9c0.5,0.6,1.1,1.1,1.9,1.3l0.2-0.5c-0.6-0.2-1.2-0.6-1.6-1.1c-0.1-0.2-0.1-0.3,0-0.5c0.3-0.7,0-1.5-0.6-2
	l0.1-0.1c1.3-1.5,14.7-14.3,17.2-16.9c2.4-2.7,4.7-5.5,6.7-8.5c1.1-1.6,3.6-6.6,5.2-9.3s2.7-6.8,3.5-6.4s2.4,5.8,2.6,7
	s2.9,6,4.2,7.3s4.8,4.7,4.1,5.8S140.3,110.8,136.9,112.2L136.9,112.2z M141.7,160.6l0.2,1l-11.5-5L141.7,160.6z M97.4,148.3h9
	l17,5.9l18.6,8c0.3,1.8,0.6,3.6,0.9,4.7c0.8,3.7,1.3,7.5,1.4,11.4c0.1,4.1,0.5,12,0.8,13.4s1.5,5.6,1.4,7c0.1,1.6,0.3,3.3,0.7,4.9
	c-2,0.1-3.9,0.9-5.4,2.1l-10.3-13.3c0.5,0.1,1.1,0,1.6-0.1c0.2-0.2-0.8-1.1-1.1-1.5c-0.2-0.2,0-0.8,0.2-1.2l0.3,0.3
	c0.8,1,2.2,1.1,3.2,0.4c0,0,0,0,0,0l5.1-4.1c1-0.8,1.1-2.2,0.4-3.2c0,0,0,0,0,0l-12.9-16l-0.1-0.1l0.4-0.3l-3-3.7
	c-0.9-1.1-2.4-1.2-3.5-0.4l-2,1.6l-1.2-1.5c-0.4-0.4-1.1-0.4-1.5,0c-0.4,0.4-0.4,0.9-0.2,1.4l1.2,1.5l-2,1.6
	c-1.1,0.9-1.2,2.4-0.4,3.5l3,3.7l0.4-0.3l0.1,0.1l2.1,2.6c-0.3,0.9-0.4,1.8-0.4,2.7L97.4,148.3z M94.1,144l10.4,3.6h-7.6L94.1,144z
	 M85.2,123.4c0-0.4,1.9-1.5,2-2.2s0.6-1.6,0.8-1.6s1.6,1.2,1.9,1s0.1-1.4-0.4-1.7s-0.6-0.8-0.2-1.1s0.9-0.9,0.6-1.1
	s-0.2-0.7,0.2-1.3c1.7-1.7,3.5-3.3,5.3-4.9c2.6-2.2,11.9-9.4,13.3-11.3s2.7-4.5,4.7-6.5s5.8-6.2,7.7-8.6s5-7,5.3-6.9s0,3.3-3,7.3
	s-6.8,8-9.4,13.7s-11.3,21.1-11.8,21.8s-2.4,0.6-2.7,1.3s-2.5,2.8-4,2.9s-1.9-0.9-2.7-1.2s-4.4-1.5-4.7-1s-0.3,1.3,0.3,1.4
	s1.9,0.4,1.9,0.7s-0.7,1.2-0.9,1S85.2,123.8,85.2,123.4z M85.2,143.3c-1.8-0.4-8.7-2.3-11.9-7.6l-0.2-0.3c0.5-0.2,1-0.4,1.5-0.5
	c1.6-0.4,3.2-0.8,4.9-1c0.3,0.4,0.7,0.7,1.1,0.9c0.5,0.3,2.6-0.5,2.9-0.4s-0.2,2.1,0,2.6s1.3,1.9,1.8,1.8c0.6-0.2,1.2-0.5,1.8-0.8
	h0.5L85.2,143.3z M84.7,144.3c-1.7-0.6-7.8-2.9-10.4-4.7c-1.9-1.3-2.8-2.3-2.6-3c0.1-0.4,0.5-0.8,0.9-0.9l0.2,0.4
	c3.2,5.5,10.2,7.4,12.2,7.9L84.7,144.3z M84.3,145.2v-0.3c-3.4-0.6-6.7-1.7-9.8-3.3c-0.8-0.4-1.6-1-2.4-1.5c-1.7-2.4-2.4-4.5-2-6.2
	c0.2-0.7,0.5-1.3,0.9-1.8c0.4,1,0.8,2,1.3,2.9c-0.6,0.2-1,0.7-1.2,1.3c-0.2,1,0.7,2.1,2.9,3.6c2.6,1.8,8.7,4.1,10.5,4.8L84.3,145.2z
	 M83.4,147.2c-1.9-0.8-6.9-2.9-9.8-5.5l0.7,0.4c3.1,1.6,6.5,2.7,9.9,3.3L83.4,147.2z M71.5,166.4c-1.4-0.5-2.8-0.8-4.2-1
	c0.2-3.8,0.8-7.5,2-11.1c1.7-4.7,1.7-9.9-0.1-14.6c-0.4-1.1-0.8-2-1-2.8c1,1.3,2.2,2.5,3.5,3.5c2.4,3.3,9.1,6.3,11.5,7.2l-2.9,6.4
	l-4.1,1.4L71.5,166.4z M83.5,192l-16.9,9.9l9.4-16.5C78.8,187.2,81.3,189.5,83.5,192z M89.4,200.7l-19.1,11.1h-5.4
	c-0.5-1.2-1.2-2.4-2-3.5l2.7-4.7l18.7-10.9C86.3,195.2,88,197.8,89.4,200.7L89.4,200.7z M62.1,207.5l1-2.3l0.6-0.4L62.1,207.5
	L62.1,207.5z M62.3,227.8l1.6,2.7l-2.7-1.5C61.5,228.6,61.9,228.2,62.3,227.8L62.3,227.8z M65.8,220.8l2.7,1.5h-3.1
	C65.6,221.9,65.7,221.3,65.8,220.8L65.8,220.8z M65.8,214.5c-0.1-0.5-0.3-1-0.4-1.6h3.1L65.8,214.5z M93.3,211.8l-20.8,0.1L90,201.7
	C91.5,204.9,92.6,208.2,93.3,211.8L93.3,211.8z M94,222.2l-23.4,0.1l-4.6-2.7c0.2-1.3,0.2-2.7,0-4l4.7-2.7l22.9-0.1
	c0.4,2.3,0.6,4.7,0.6,7C94.1,220.6,94.1,221.4,94,222.2z M91.6,234.3l-19.1-10.9l21.5-0.1C93.7,227,92.9,230.7,91.6,234.3
	L91.6,234.3z M86.9,243.7l-21.2-12.1l-2.7-4.6c0.8-1.1,1.5-2.2,2-3.5h5.4l20.9,11.9C90.1,238.3,88.7,241.1,86.9,243.7L86.9,243.7z
	 M78.2,253.1l-11.4-19.6l19.5,11.1C84,247.8,81.3,250.6,78.2,253.1L78.2,253.1z M56.8,239.3L68.4,259c-3.6,1.6-7.5,2.6-11.4,3.1
	L56.8,239.3z M56.8,231.7c1.2-0.5,2.4-1.2,3.5-2l4.7,2.7l12.5,21.4c-2.5,1.9-5.2,3.5-8.1,4.8l-12.6-21.5L56.8,231.7z M56.7,198.3
	l4.5-7.8l-4.4,10.3L56.7,198.3z M56.6,177.9c3.1,0.4,6.2,1,9.1,2.1l-0.7,1.5l-8.4,14.7L56.6,177.9z M46.3,237.4l2.7-4.7
	c1.3,0.2,2.7,0.2,4,0l2.7,4.6l0.1,24.8c-1.3,0.1-2.6,0.2-4,0.2c-1.8,0-3.6-0.1-5.4-0.3L46.3,237.4z M46.3,232.2
	c0.5,0.2,1,0.3,1.5,0.4l-1.5,2.7L46.3,232.2z M46.2,200.2l1.6,2.7c-0.5,0.1-1,0.3-1.5,0.4L46.2,200.2z M46,177.9
	c1.8-0.2,3.6-0.4,5.4-0.4c1.3,0,2.7,0.1,4,0.2l0.1,20.2l-2.7,4.7c-1.3-0.2-2.7-0.2-4,0l-2.7-4.7L46,177.9z M34.2,258.7l11-19.4
	l0.1,22.7C41.5,261.4,37.7,260.3,34.2,258.7z M25.2,253.2l11.8-20.7l4.7-2.7c1.1,0.8,2.2,1.5,3.5,2v5.4l-12,21.1
	C30.4,256.9,27.7,255.2,25.2,253.2L25.2,253.2z M16.9,244.3l18.3-10.7l-10.8,18.9C21.5,250.1,19,247.4,16.9,244.3L16.9,244.3z
	 M12,235l19.6-11.4H37c0.5,1.2,1.2,2.4,2,3.5l-2.7,4.7l-20,11.7C14.6,240.8,13.1,238,12,235z M9.4,223.7l20-0.1L11.6,234
	C10.4,230.7,9.7,227.2,9.4,223.7z M9.3,222.6c0-0.8-0.1-1.6-0.1-2.4c0-2.3,0.2-4.7,0.5-7l21.4-0.1l4.7,2.7c-0.2,1.3-0.2,2.7,0,4
	l-4.6,2.7L9.3,222.6z"/>
</svg>
