<?xml version="1.0" encoding="utf-8"?>
<!-- Generator: Adobe Illustrator 21.0.0, SVG Export Plug-In . SVG Version: 6.00 Build 0)  -->
<svg version="1.1" id="圖層_1" xmlns="http://www.w3.org/2000/svg" xmlns:xlink="http://www.w3.org/1999/xlink" x="0px" y="0px"
	 viewBox="0 0 267.6 271.7" style="enable-background:new 0 0 267.6 271.7;" xml:space="preserve">
<style type="text/css">
	.st0{fill:#1D1D1B;}
</style>
<path class="st0" d="M0,220.3c0.1,28.5,23.4,51.5,51.9,51.4c28.5-0.1,51.5-23.4,51.4-51.9c-0.1-19.5-11-36.5-27.1-45.2
	c2-4.6,3.4-7.9,3.6-8.2c0.8-1.3,2.1-0.5,3.2-2.6c1.1-2.1,1.2-4.4,3.6-6.3c0.5-0.4,0.5-0.8,0.2-1.1c0,0,0.4-1.1,1.3-1.8
	c0.2-0.2,0.8-1.4,1.6-3.1l49,63.5c0.3,1,0.7,2,1.3,2.9c-1,1.9-1.5,4-1.5,6.2c0,1.8,0.4,3.5,1,5c-0.4,0.4-1.1,1.1-1.4,1.3
	c-0.5,0.4-0.5,1.4-0.5,1.8c0,0.3-0.8,1.1-1,1.1c-0.3,0-0.3-0.7-0.5-0.8c-0.2-0.1-3.2,1.5-3.4,1.6c-0.2,0.1,0.3,0.7,0.1,1.1
	c-0.2,0.4-1.3,0.1-6.1,1.1c-4.8,0.9-3.6,4.2-3.2,4.9c0.4,0.7,1.8,0.8,2.1,0.8c0.3,0,3,2,3.8,2.3c0.8,0.3,2.4-0.1,2.4-0.1l-1,1.7
	c0,0,3.3,2.1,3.9,2.3c0.6,0.2,0.8-1.1,1.3-1c0.5,0,2.1,1.5,2.8,1.5c0.7,0,2.5-1.7,2.8-2.2c0.4-0.5,0.3-0.8,0.3-0.8s0.2,0,0.5,0
	c0.2,0,1.4-1.2,1.5-1.3c0.1-0.2-0.6-0.8-0.6-0.8s0.7-0.5,1.8-0.8c1-0.2,2.5-1,2.5-1s4.2-0.6,8.5-1.7c1.6-0.4,2.6-0.9,3.3-1.5l9.6,2
	c8.1,18,26.3,30.5,47.3,30.4c28.5-0.1,51.5-23.4,51.4-51.9c-0.1-28.5-23.4-51.5-51.9-51.4c-11.2,0.1-21.5,3.7-29.9,9.8
	c-0.9-1.5-3.1-4.8-4.1-5.6c-0.6-0.5-1.6-0.5-2.7-0.4c-1.1-1.5-3.1-3.9-5.6-4.7c-0.8-0.2-1.4-0.4-2-0.5c0.2-0.8,0.7-1.8,0.9-2.4
	c3.4-1.4,6-6.1,6.5-7.2c0.7-0.4,1.5-1.9,1.4-2.2c-0.2-0.3-3.3-1.7-4.2-2.1c0-0.1,0.1-0.2,0.1-0.2c0-0.2,1.7-1.1,1.7-1.1
	s-1.4-1.3-1.2-1.8c0.1-0.4,3-8.4,4.2-10.8c1.2-2.4,6.4-8.9,7-9.8c0.7-0.9,5.8-3.6,10.6-5.5c4.8-2,7.9-6.1,8.4-10.2
	c0.5-4.1-0.9-9-0.9-9l1.2-1.2c0,0-0.9-5.3-3.7-11.6c3.4-2.3,6.7-7.7,6.1-13.2c-0.1-0.8-1-1.5-1.1-2.5c-0.3-2.9,4-9.9,1.2-13
	c0.5-3.3-1-4.9-2.3-7.3c-0.8-1.5-1.4-3.3-2.2-4.5c-1.2-1.9-3.6-3-4.3-5.1c-0.1-0.8,0.5-0.9,0.4-1.7c-1.7-1.5-3.2-3.3-5.4-4.4
	c-1-0.1-0.5,1.5-1.2,1.6c-1.2-0.6-1.2-2.3-2.3-3c-1.5-0.1-2.5,1.5-3.9,0.3c0.3-1.8,1.4-2.6,1.3-4.8c-1-2.5-3.8-1.7-6.3-2.3
	c-2.1-0.5-3.6-2.4-5.3-2.9c-2.4,2.5-7.6-1-9.5,2.4c-0.3,2,0.9,2.8,0.6,4.8c-2.2,0.7-3.9-1.9-7-1.7c-1.2,0.9-5.7,3.9-8.3,3.6
	c-2.5-1.4-3.9-2.5-4.8-3.6c-1.4-1.7-5.4-2.1-6.2-2.3c-0.7-0.2-0.9-1.5-1.6-2.1c-0.7-0.6,0-2.4,0.3-3.9c0.3-1.6,1.8-1.3,2.3-1.3
	c0.5,0,1.6-1.7,2.2-2.7c0.7-1,0.6-2.9-0.4-4.6c-1-1.7-0.7-3-0.8-4.3c-0.1-1.3-0.4-3.3-1.4-4.3c-1-1.1-0.7-2.9-1.2-3.9
	c-0.5-0.9-10.5-4.9-18.7-4c-8.2,0.9-14.1,7.1-16.5,9.8c-2.4,2.8-4.8,5.4-4.9,6c-0.1,0.5,2,0.9,2.9,1.1c0.9,0.2,5.3,1.9,5.3,1.9
	s0.1,1.5,0.2,3.3c0,1.8-0.8,4.3-1.7,5.5c-0.9,1.2-0.2,2.1,0.6,2.4c0.8,0.3,1.8,0.4,1.4,1.3c-0.4,0.9-0.5,2.4,0.1,2.7
	c0.6,0.3,0.8,1.4,0.8,2.3c0,0.9,0.8,1.5,1.1,2.1c0.3,0.6-0.1,2.5,0.8,3.6c1,1.1,3.2,0.9,5.4,0.7c2.2-0.2,3.9,1.2,5.1,2.1
	c1.2,0.9,1,2,1.2,2.6c0.2,0.6,1.6,1.1,0.6,1.8c-1,0.8-2.4,3.2-4.8,6.2c-2.4,3-6.8,14.9-9.4,18.4c-2.6,3.5-6.9,7.1-9.1,9.3
	c-2.2,2.2-18.5,27.4-18.5,27.4l-1.2,0c0,0-2.6,3.6-3.6,3.8c-0.9,0.1-1.9-0.1-2.7,0c-0.8,0.1-1.8,0.9-2.8,0.9c-0.9,0-1.9,0.7-2.3,1.5
	c-0.4,0.8-0.2,1.6-0.1,2.1c0.1,0.5-0.8,1.1-0.9,1.8c-0.1,0.7-0.5,1.5-0.8,1.9c-0.3,0.4-0.5,1.6-0.5,1.9c0,0.3-2.2,2.2-2.3,2.5
	c0,0.2,0.1,0.5,0.3,0.7c-0.5,1-1,2.5-1,4.6c0,1,0.3,1.9,0.7,2.9c0.3,1.4,0.8,3,1.5,4.8c1.3,3.4,2.1,8.9,0.1,14.2
	c-1.4,3.8-1.9,8.7-2,11.3c-0.3,0-0.5,0.1-0.6,0.2c-0.7,0.4-0.9,2.8-0.9,4.5c-4.4-1.2-9-1.8-13.8-1.8C22.9,168.5-0.1,191.7,0,220.3z
	 M12.9,202.7l16.4,9.4L10,212.1C10.6,208.8,11.6,205.7,12.9,202.7z M18.4,193.7l16.3,9.3l3.3,4.1l0.8,1.4c-0.8,1.1-1.5,2.2-2,3.5
	l-5.4,0l-18.1-10.3C14.7,198.8,16.4,196.2,18.4,193.7z M36.1,214.6l-2.7-1.5l3.1,0C36.3,213.6,36.2,214.1,36.1,214.6z M36.1,220.9
	c0.1,0.5,0.3,1,0.4,1.5l-3.1,0L36.1,220.9z M23,188.8l9.8,11.9L19,192.9C20.3,191.4,21.6,190,23,188.8z M45,196.2l-9.1-15.6
	c2.9-1.1,5.9-2,9-2.5L45,196.2z M45.1,203.7c-0.6,0.2-1.2,0.5-1.7,0.8l-15.9-19.4c2.3-1.6,4.8-3,7.5-4.2L45,198.3L45.1,203.7z
	 M40.8,229.1l-2.7,1.6l1.5-2.7C40,228.3,40.4,228.7,40.8,229.1z M55.6,203.2L55.6,203.2c-0.5-0.1-1-0.2-1.6-0.4l1.5-2.7L55.6,203.2z
	 M55.7,235.2l-1.6-2.7c0.5-0.1,1-0.3,1.5-0.4L55.7,235.2z M72.6,183.1c0.9,0.5,1.8,1,2.6,1.6l-10.4,18.2l-1,0.6
	C66.1,198.1,69.5,190.2,72.6,183.1z M70.2,129.4c-0.1,0-0.3,0-0.4,0c-1.1,0-1.8,0.4-2.3,1.1c-0.2,0.2-0.3,0.5-0.4,0.8
	c0.1-1.3,0.5-2.4,0.8-3.2c0.1,0,0.1,0.1,0.2,0.1c0.2,0.1,1.1-0.4,1.9-0.9C69.9,127.9,70,128.6,70.2,129.4z M70.3,129.9
	c0.1,0.5,0.3,1.1,0.5,1.7c-0.6,0.6-1,1.4-1.2,2.2c-0.3,1.5,0.1,3.3,1.2,5.3c-1.4-1.3-2.5-2.6-3.1-4c-0.5-2.4-0.2-3.6,0.2-4.3
	c0.4-0.6,1-0.8,1.9-0.8C69.9,129.9,70.1,129.9,70.3,129.9z M72.7,129.5c-0.6,0-1.2-0.1-2-0.1c-0.2-1-0.2-1.8-0.2-2.4
	c0.5-0.3,0.9-0.5,1.1-0.5c0.5,0,1.6,0.8,2.1,1.1C73.9,127.7,73.3,128.6,72.7,129.5z M72.4,130c-0.1,0.2-0.2,0.4-0.3,0.6
	c-0.3,0.2-0.6,0.4-0.9,0.7c-0.1-0.5-0.3-0.9-0.4-1.3C71.4,129.9,72,129.9,72.4,130z M79.3,133.3c-1.3,0.2-2.9,0.5-4.8,1
	c-0.6,0.2-1.2,0.3-1.6,0.5c-0.6-1.1-1.1-2.2-1.4-3.1c0.2-0.2,0.5-0.4,0.7-0.6c0.6,0.3,3,0,3.3,0.1c0.4,0,0.8,0.8,1.5,0.8
	c0.7,0,3.5-0.2,3.6,0C80.7,132.3,79.5,133,79.3,133.3z M161,213.2c0.2-1.8,0.4-3.1,0.5-3.9c0.2-1.5,1.4-5.3,1.4-5.3s2-0.5,4-1
	c-1.1,3.3-1.9,6.7-2.3,10.2L161,213.2z M164.5,214.5c-0.1,0.6-0.1,1.2-0.1,1.8l-1.2,0c-0.4-0.7-0.9-1.3-1.5-1.8L164.5,214.5z
	 M176.4,159.1c-0.5-0.4-1.6-1.4-2.9-1.9c0.3-0.8,0.7-1.7,1.1-2.6c1.3,0.4,2.7,1.4,3.4,1.8C177.8,156.9,177.2,158,176.4,159.1z
	 M173.2,158.4c0,0,0-0.1,0-0.1c0-0.2,0.1-0.3,0.1-0.5c1.2,0.5,2.3,1.4,2.7,1.8c-0.1,0.2-0.3,0.4-0.5,0.6
	C175.2,159.7,174.3,158.8,173.2,158.4z M172.3,163c0.2-1,0.5-2.7,0.8-4.1c1,0.4,1.8,1.3,2.2,1.6C174.4,161.5,173.4,162.4,172.3,163z
	 M182.7,192.9l16.3,9.3l3.3,4.1l0.8,1.4c-0.8,1.1-1.5,2.2-2,3.5l-5.4,0l-18.1-10.3C179.1,198,180.7,195.3,182.7,192.9z M174.3,211.3
	c0.6-3.3,1.6-6.5,3-9.5l16.4,9.4L174.3,211.3z M195.5,212.3l1.2,0.7l-22.7,0.1c0-0.2,0.1-0.5,0.1-0.7L195.5,212.3z M200.8,212.3
	c-0.1,0.2-0.1,0.5-0.2,0.7l-1.7,0l-1.2-0.7L200.8,212.3z M187.3,187.9l9.8,11.9l-13.7-7.8C184.6,190.6,185.9,189.2,187.3,187.9z
	 M209.4,195.3l-9.1-15.6c2.9-1.1,5.9-2,9-2.5L209.4,195.3z M209.4,202.9c-0.6,0.2-1.2,0.5-1.7,0.8l-15.9-19.4c2.3-1.6,4.8-3,7.5-4.2
	l10.1,17.3L209.4,202.9z M201.4,231.7l4.6-2.7c0.3,0.2,0.6,0.4,0.9,0.6c-0.1,4-0.3,10.5-0.3,11.8c0,0.1,0,0.1,0,0.2l-0.4,0.8
	c-0.7,0.3-1.9-0.2-2.4,0.1c-0.6,0.3-0.5,3-0.6,4.5l-9.3-2L201.4,231.7z M192.7,244.7l-10-2.1l16.8-9.8L192.7,244.7z M202.5,229.8
	l1.5-2.7c0.4,0.4,0.7,0.8,1.1,1.1L202.5,229.8z M219.9,202.4c-0.5-0.2-1-0.3-1.6-0.4l1.5-2.7L219.9,202.4z M220,234.4l-1.4-2.3
	c0,0,0.7,0.2,1.4,0.1L220,234.4z M247.8,191.2L231,201l9.4-16.5C243.1,186.4,245.6,188.6,247.8,191.2z M253.8,199.8L234.6,211
	l-5.4,0c-0.5-1.2-1.2-2.4-2-3.5l2.7-4.7l18.7-10.9C250.6,194.4,252.3,197,253.8,199.8z M226.5,206.7c-0.4-0.4-0.7-0.8-1.1-1.1
	l2.7-1.6L226.5,206.7z M230.1,220l2.7,1.5l-3.1,0C229.9,221,230,220.5,230.1,220z M230.1,213.7c-0.1-0.5-0.3-1-0.4-1.5l3.1,0
	L230.1,213.7z M257.6,210.9l-20.8,0.1l17.4-10.2C255.8,204,256.9,207.4,257.6,210.9z M258.4,221.4l-23.4,0.1l-4.7-2.7
	c0.1-0.7,0.1-1.3,0.1-2c0-0.7-0.1-1.3-0.1-2l4.6-2.7l22.9-0.1c0.4,2.3,0.6,4.6,0.6,7C258.4,219.8,258.4,220.6,258.4,221.4z
	 M256,233.5l-19.1-10.9l21.4-0.1C258,226.3,257.2,230,256,233.5z M251.2,242.8L230,230.7l-2.7-4.6c0.8-1.1,1.5-2.2,2-3.5l5.4,0
	l20.9,11.9C254.4,237.4,253,240.2,251.2,242.8z M227.9,229.3l0.2,0.4l-0.4-0.2C227.8,229.4,227.9,229.3,227.9,229.3z M242.6,252.2
	l-11.5-19.6l19.5,11.1C248.3,246.9,245.6,249.8,242.6,252.2z M221.1,238.4l11.5,19.8c-3.6,1.5-7.4,2.6-11.4,3.1L221.1,238.4z
	 M221.1,231.2c0-0.1,0-0.2,0-0.3c0.5-0.2,1-0.5,1.5-0.7c0.5,0.2,1,0.3,1.2,0.2c0.3-0.1,0.1-0.6,0-0.9c0.1-0.1,0.2-0.1,0.3-0.2
	c0.6,0.3,1.5,0.6,2.3,0.7l2.9,1.6l12.5,21.4c-2.5,1.9-5.2,3.5-8.1,4.8l-12.6-21.5L221.1,231.2z M220.9,197.4l10.2-17.9
	c3,1.1,5.8,2.6,8.4,4.3l-10.4,18.2l-4.6,2.7c-1.1-0.8-2.2-1.5-3.5-2L220.9,197.4z M220.8,177c3.2,0.4,6.3,1.1,9.3,2.1l-9.2,16.1
	L220.8,177z M210.6,236.6l0.6-1c0.6-0.1,1.6-0.3,3-0.5c2.3-0.3,3.4-1.1,3.9-1.7l1.9,3.2l0.1,24.8c-1.3,0.1-2.6,0.2-4,0.2
	c-1.8,0-3.6-0.1-5.4-0.3L210.6,236.6z M210.5,199.4l1.6,2.7c-0.5,0.1-1,0.3-1.5,0.4L210.5,199.4z M210.4,177.1
	c1.8-0.2,3.6-0.4,5.4-0.4c1.3,0,2.7,0.1,4,0.2l0.1,20.2l-2.7,4.7c-0.7-0.1-1.3-0.1-2-0.1c-0.7,0-1.4,0.1-2,0.1l-2.7-4.6L210.4,177.1
	z M198.5,257.9l5.3-9.2c0.9,0.6,2.5,1.2,3.4,1.6c1.4,0.7,1.3-0.8,1.5-2c0.1-0.7,0.5-4.4,0.9-7.6l0.1,20.4
	C205.8,260.6,202,259.5,198.5,257.9z M189.6,252.4l3.8-6.7l9.6,2c0,0,0,0.1,0,0.1l-5.5,9.6C194.7,256,192,254.4,189.6,252.4z
	 M181.2,243.5l0.5-0.3l10.6,2.2l-3.6,6.3C185.9,249.3,183.3,246.5,181.2,243.5z M176.3,234.2l13.8-8l11.5-2.7c0.5,1,1,1.9,1.7,2.7
	l-2.7,4.7l-19.4,11.3l-1-0.2C178.6,239.6,177.3,237,176.3,234.2z M174.9,229.7l11.6-2.7l-10.6,6.2
	C175.5,232,175.2,230.9,174.9,229.7z M173.6,216.3c0-0.6,0.1-1.2,0.2-1.8l25.3-0.1l1.1,0.6c0,0.4-0.1,0.8-0.1,1.2L173.6,216.3z
	 M172.1,168.1c2.2,0.4,3.2,2.2,3.7,3.5c-0.2,0-0.3,0-0.4,0C174.8,171.4,173.1,169.5,172.1,168.1z M171.2,166.6
	c0.6,0.1,1.2,0.2,1.9,0.5c2.2,0.7,4.1,2.8,5.1,4.2c-0.7,0.1-1.4,0.2-2,0.2c-0.5-1.5-1.7-3.6-4.4-4l0,0.3
	C171.5,167.3,171.3,166.8,171.2,166.6z M170.2,156.4l-1.3-0.2l1.2-1.1L170.2,156.4z M167.6,160.6c-0.5,0-2.1,0.1-2.2-0.2
	c-0.1-0.4,2.4-2.5,2.4-2.5l1.4,0.7C169.1,158.6,168.1,160.6,167.6,160.6z M160,237.7c0.7-0.9,0.8-2,0.8-3.1c0-0.1,0-0.3,0-0.4
	c1.5-1.3,2.7-2.8,3.5-4.6l1.1,0c0.7,3.4,1.8,6.8,3.1,9.9L160,237.7z M136.9,112.2c-3.3,1.5-6.9,5.6-11.3,7.8
	c-4.4,2.2-6.4,5.5-7.5,10.1c-1.2,4.6,3.2,11.9,5.2,14.1c1.4,1.5,4.8,4.3,6.7,5.9l-34.5-12c0.2-0.4,0.3-0.8,0.4-1.1
	c1-0.2,1.9-0.4,2.4-0.5c1.5-0.5,2.7-3.8,3.6-4.6c0.8-0.7,3.2-3.6,4.6-5.3c0.6,0.6,0.5,1,0.4,1.5c-0.1,0.3-0.1,0.6,0,0.9
	c0.4,0.7,1.7,1.3,1.9,1.3l0.2-0.5c-0.5-0.2-1.4-0.7-1.6-1.1c-0.1-0.1,0-0.3,0-0.5c0.1-0.5,0.3-1.2-0.6-2c0,0,0.1-0.1,0.1-0.1
	c1.4-1.5,14.7-14.3,17.2-16.9c2.5-2.6,5.7-6.9,6.7-8.5c1.1-1.6,3.6-6.6,5.2-9.3c1.6-2.7,2.7-6.8,3.5-6.4c0.8,0.4,2.4,5.8,2.6,7
	c0.2,1.3,2.9,6,4.2,7.3c1.3,1.3,4.8,4.7,4.1,5.9C149.7,106.2,140.3,110.8,136.9,112.2z M141.7,160.6c0.1,0.3,0.1,0.7,0.2,1l-11.5-5
	L141.7,160.6z M97.4,148.3l9,0l17,5.9l18.6,8c0.3,1.8,0.6,3.6,0.9,4.7c0.7,3,1.3,7.3,1.4,11.4c0.1,4.1,0.5,12,0.8,13.4
	c0.3,1.4,1.5,5.6,1.4,7c-0.1,1,0.4,3.5,0.7,4.9c-2,0.1-3.9,0.9-5.4,2.1l-10.3-13.3c0.8,0.1,1.5,0,1.6-0.1c0.2-0.2-0.8-1.1-1.1-1.5
	c-0.2-0.2,0-0.8,0.2-1.2l0.3,0.3c0.8,1,2.2,1.1,3.2,0.4l5.1-4.1c1-0.8,1.1-2.2,0.4-3.2L128.2,167c0,0,0-0.1-0.1-0.1l0.4-0.3l-3-3.7
	c-0.9-1.1-2.4-1.2-3.5-0.4l-2,1.6l-1.2-1.5c-0.4-0.5-1-0.5-1.5-0.2c-0.5,0.4-0.5,1-0.2,1.5l1.2,1.5l-2,1.6c-1.1,0.8-1.2,2.4-0.4,3.5
	l3,3.7l0.4-0.3c0,0,0,0.1,0.1,0.1l2.1,2.6c-0.3,0.8-0.5,1.8-0.4,2.7L97.4,148.3z M94.1,144l10.4,3.6l-7.6,0L94.1,144z M85.2,123.4
	c0-0.4,1.9-1.5,2-2.2c0.1-0.7,0.6-1.6,0.9-1.6c0.2,0,1.6,1.2,1.9,1c0.3-0.2,0.1-1.4-0.4-1.7c-0.5-0.3-0.6-0.8-0.2-1.1
	c0.4-0.3,0.9-0.9,0.6-1.1c-0.3-0.2-0.2-0.7,0.2-1.3c0.4-0.6,2.8-2.6,5.4-4.9c2.6-2.2,11.9-9.4,13.3-11.3c1.3-1.9,2.7-4.5,4.7-6.5
	c2-2,5.8-6.2,7.7-8.6c1.9-2.4,5-7,5.3-6.9c0.3,0.1,0,3.3-3,7.2c-3.1,4-6.8,8-9.4,13.7c-2.6,5.7-11.3,21.1-11.8,21.8
	c-0.5,0.6-2.4,0.6-2.7,1.3c-0.3,0.7-2.5,2.8-4,2.9c-1.5,0.1-1.9-0.9-2.7-1.2c-0.8-0.3-4.4-1.5-4.7-1c-0.3,0.5-0.3,1.3,0.3,1.4
	c0.6,0.2,1.9,0.4,1.9,0.7c0,0.4-0.7,1.2-0.9,1C88.9,124.9,85.2,123.8,85.2,123.4z M85.1,143.3c-1.8-0.4-8.7-2.3-11.9-7.7
	c-0.1-0.1-0.1-0.2-0.2-0.3c0.4-0.2,0.9-0.3,1.5-0.5c2-0.5,3.6-0.8,4.9-1c0.3,0.3,0.8,0.7,1.1,0.9c0.5,0.3,2.6-0.5,2.9-0.4
	c0.3,0.1-0.2,2.1,0,2.6c0.2,0.5,1.3,1.9,1.8,1.8c0.5-0.1,1.8-0.8,1.8-0.8l0.5,0L85.1,143.3z M84.7,144.3c-1.7-0.6-7.8-2.9-10.4-4.7
	c-1.9-1.3-2.8-2.3-2.6-3c0.1-0.3,0.4-0.7,0.9-0.9c0.1,0.1,0.1,0.2,0.2,0.3c3.2,5.5,10.2,7.4,12.1,7.9L84.7,144.3z M84.3,145.2l0-0.3
	c-0.1,0-5.2-0.8-9.8-3.3c-0.9-0.5-1.7-1-2.4-1.5c-1.7-2.4-2.4-4.5-2-6.2c0.1-0.6,0.4-1.2,0.9-1.7c0.3,0.9,0.8,1.9,1.3,2.9
	c-0.7,0.4-1.1,0.8-1.1,1.3c-0.2,1,0.7,2.1,2.9,3.6c2.6,1.8,8.7,4.1,10.5,4.8L84.3,145.2z M83.4,147.2c-1.9-0.8-6.9-2.9-9.8-5.5
	c0.2,0.1,0.4,0.3,0.7,0.4c4.4,2.4,9.3,3.2,9.9,3.3L83.4,147.2z M71.5,166.4c-0.9-0.3-2.9-0.9-4.2-1c0.2-2.6,0.6-7.4,2-11.1
	c2-5.5,1.3-11.1-0.1-14.6c-0.4-1.1-0.8-2-1-2.8c0.9,1.2,2.1,2.4,3.5,3.5c2.4,3.3,9.1,6.3,11.5,7.2l-2.9,6.4l-4.1,1.4L71.5,166.4z
	 M83.5,192l-16.9,9.9l9.4-16.5C78.8,187.2,81.3,189.5,83.5,192z M89.4,200.7l-19.1,11.2l-5.4,0c-0.5-1.3-1.2-2.4-2-3.5l2.7-4.7
	l18.7-10.9C86.2,195.2,88,197.8,89.4,200.7z M62.1,207.4c0.3-0.7,0.6-1.4,1-2.3l0.6-0.4L62.1,207.4
	C62.1,207.5,62.1,207.5,62.1,207.4z M62.3,227.8l1.6,2.7l-2.7-1.5C61.5,228.6,61.9,228.2,62.3,227.8z M65.8,220.8l2.7,1.5l-3.1,0
	C65.5,221.8,65.7,221.3,65.8,220.8z M65.8,214.5c-0.1-0.5-0.3-1-0.4-1.5l3.1,0L65.8,214.5z M93.3,211.7l-20.8,0.1l17.4-10.2
	C91.4,204.8,92.6,208.2,93.3,211.7z M94,222.2l-23.4,0.1l-4.7-2.7c0.1-0.7,0.1-1.3,0.1-2c0-0.7-0.1-1.3-0.1-2l4.6-2.7l22.9-0.1
	c0.4,2.3,0.6,4.6,0.6,7C94.1,220.6,94.1,221.4,94,222.2z M91.6,234.3l-19.1-10.9l21.4-0.1C93.7,227.1,92.9,230.8,91.6,234.3z
	 M86.9,243.7l-21.2-12.1l-2.7-4.6c0.8-1.1,1.5-2.2,2-3.5l5.4,0l20.9,11.9C90.1,238.3,88.6,241.1,86.9,243.7z M78.3,253.1l-11.5-19.6
	l19.5,11.1C84,247.7,81.3,250.6,78.3,253.1z M56.8,239.3L68.4,259c-3.6,1.5-7.4,2.6-11.4,3.1L56.8,239.3z M56.8,231.7
	c1.2-0.5,2.4-1.2,3.5-2l4.7,2.7l12.5,21.4c-2.5,1.9-5.2,3.5-8.1,4.8l-12.6-21.5L56.8,231.7z M56.6,198.3l4.5-7.8l-4.4,10.3
	L56.6,198.3z M56.5,177.9c3.2,0.4,6.2,1.1,9.1,2.1l-0.6,1.5l-8.4,14.7L56.5,177.9z M46.3,237.4l2.7-4.7c0.7,0.1,1.3,0.1,2,0.1
	c0.7,0,1.3-0.1,2-0.1l2.7,4.6l0.1,24.8c-1.3,0.1-2.6,0.2-4,0.2c-1.8,0-3.6-0.1-5.4-0.3L46.3,237.4z M46.3,232.2
	c0.5,0.2,1,0.3,1.6,0.4l-1.5,2.7L46.3,232.2z M46.1,200.2l1.6,2.7c-0.5,0.1-1,0.3-1.5,0.4L46.1,200.2z M46,177.9
	c1.8-0.2,3.6-0.4,5.4-0.4c1.3,0,2.7,0.1,4,0.2l0.1,20.2l-2.7,4.7c-0.7-0.1-1.3-0.1-2-0.1c-0.7,0-1.4,0.1-2,0.1l-2.7-4.6L46,177.9z
	 M34.2,258.7l11.1-19.4l0.1,22.7C41.4,261.4,37.7,260.3,34.2,258.7z M25.2,253.2l11.8-20.7l4.6-2.7c1.1,0.8,2.2,1.5,3.5,2l0,5.4
	l-12,21.1C30.4,256.9,27.7,255.2,25.2,253.2z M16.9,244.3l18.3-10.7l-10.8,18.9C21.5,250.1,19,247.4,16.9,244.3z M12,235l19.6-11.4
	l5.4,0c0.5,1.3,1.2,2.4,2,3.5l-2.7,4.7l-20,11.7C14.5,240.8,13.1,238,12,235z M9.4,223.7l20-0.1L11.6,234
	C10.4,230.7,9.7,227.3,9.4,223.7z M9.3,222.6c0-0.8-0.1-1.6-0.1-2.4c0-2.4,0.2-4.7,0.5-7l21.4-0.1l4.7,2.7c-0.1,0.7-0.1,1.3-0.1,2
	c0,0.7,0.1,1.4,0.1,2l-4.6,2.7L9.3,222.6z"/>
</svg>
